<svg width="107" height="48" viewBox="0 0 107 48" fill="none" xmlns="http://www.w3.org/2000/svg">
<path d="M72.1455 13.4977H59.6788L49.3357 29.8813V0H38.7546V47.2146H48.0177L54.7544 37.8082L61.4912 47.2146H75.0379L60.9969 29.0776L72.1455 13.4977Z" fill="#6424FB"/>
<path fill-rule="evenodd" clip-rule="evenodd" d="M70.8641 30.3379C70.8641 20.5845 78.7907 12.6758 88.5663 12.6758C98.3603 12.6758 106.287 20.5845 106.269 30.3379C106.269 40.0913 98.342 48 88.5663 48C78.7907 48 70.8641 40.0913 70.8641 30.3379ZM81.4818 30.3562C81.4818 34.7032 84.6488 37.8448 88.5664 37.8448C92.4839 37.8448 95.6509 34.685 95.6509 30.3562C95.6509 26.0092 92.4839 22.8494 88.5664 22.8494C84.6488 22.8494 81.4818 26.0092 81.4818 30.3562Z" fill="#6424FB"/>
<path fill-rule="evenodd" clip-rule="evenodd" d="M0 30.3379C0 20.5845 7.92667 12.6758 17.7023 12.6758C27.4779 12.6758 35.4046 20.5845 35.4046 30.3379C35.4046 31.4703 35.2947 32.5845 35.0934 33.6621H10.5994C11.8076 37.0776 14.4804 38.8128 17.7938 38.8128C20.9608 38.8128 22.3887 37.8813 23.5054 36.5662H34.2696C31.7433 43.2511 25.2811 48 17.7023 48C7.92667 48 0 40.0913 0 30.3379ZM17.7023 21.9361C14.4803 21.9361 11.7344 23.8356 10.5994 27.0137H24.8051C23.6885 23.8356 20.9242 21.9361 17.7023 21.9361Z" fill="#6424FB"/>
</svg>
